
<svg width="256" height="256" viewBox="0 0 256 256" fill="none" xmlns="http://www.w3.org/2000/svg">
<path fill-rule="evenodd" clip-rule="evenodd" d="M127.335 26.2679C127.953 25.9107 128.716 25.9107 129.335 26.2679L189.016 60.7248C189.972 61.2771 190.3 62.5003 189.748 63.4569L103.413 212.993C102.861 213.949 101.638 214.277 100.681 213.725L41 179.268C40.3812 178.911 40 178.25 40 177.536V77.8453C40 77.1308 40.3812 76.4705 41 76.1132L127.335 26.2679ZM111.073 219.725C110.117 219.173 109.789 217.949 110.341 216.993L196.676 67.4569C197.228 66.5003 198.451 66.1726 199.408 66.7248L213.965 75.1293C214.922 75.6816 215.249 76.9048 214.697 77.8614L128.362 227.397C127.81 228.354 126.587 228.682 125.63 228.129L111.073 219.725ZM143.979 216.349C142.956 218.121 144.939 220.104 146.711 219.081L215.669 179.268C216.288 178.911 216.669 178.25 216.669 177.536V97.9096C216.669 95.8634 213.96 95.1375 212.937 96.9096L143.979 216.349Z" fill="url(#paint0_linear_1_12)"/>
<defs>
<linearGradient id="paint0_linear_1_12" x1="150.335" y1="25.3708" x2="150.335" y2="232.803" gradientUnits="userSpaceOnUse">
<stop stop-color="#232B59" stop-opacity="0.84"/>
<stop offset="1" stop-color="#141414"/>
</linearGradient>
</defs>
</svg>
