<svg width="505" height="128" viewBox="0 0 505 128" fill="none" xmlns="http://www.w3.org/2000/svg">
    <path
        d="M58.25 109.618C58.0955 109.707 57.905 109.707 57.75 109.618L18.619 87.0255C18.543 86.9816 18.4799 86.9185 18.436 86.8425C18.3921 86.7665 18.369 86.6803 18.369 86.5925V41.4075C18.369 41.3197 18.3921 41.2335 18.436 41.1575C18.4799 41.0815 18.543 41.0184 18.619 40.9745L57.75 18.382C57.826 18.3381 57.9122 18.315 58 18.315C58.0878 18.315 58.174 18.3381 58.25 18.382L74.2115 27.597C74.31 27.6539 74.425 27.6755 74.5374 27.6582C74.6499 27.6409 74.7531 27.5858 74.83 27.502L79.6755 22.217C79.7261 22.1618 79.7637 22.096 79.7854 22.0243C79.8072 21.9527 79.8126 21.8771 79.8012 21.8031C79.7898 21.7291 79.762 21.6586 79.7197 21.5968C79.6774 21.535 79.6218 21.4834 79.557 21.446L58.25 9.1445C58.174 9.10062 58.0878 9.07751 58 9.07751C57.9122 9.07751 57.826 9.10062 57.75 9.1445L10.619 36.355C10.543 36.3989 10.4799 36.462 10.436 36.538C10.3921 36.614 10.369 36.7002 10.369 36.788V91.2105C10.369 91.3895 10.464 91.5545 10.619 91.6435L57.75 118.855C57.826 118.899 57.9122 118.922 58 118.922C58.0878 118.922 58.174 118.899 58.25 118.855L105.381 91.6435C105.457 91.5996 105.521 91.5365 105.564 91.4605C105.608 91.3845 105.631 91.2983 105.631 91.2105V66.6075C105.631 66.5326 105.615 66.4587 105.582 66.3912C105.55 66.3237 105.503 66.2644 105.444 66.2175C105.386 66.1707 105.318 66.1376 105.245 66.1206C105.172 66.1036 105.096 66.1033 105.023 66.1195L98.023 67.6735C97.912 67.6983 97.8128 67.7601 97.7416 67.8488C97.6704 67.9375 97.6316 68.0478 97.6315 68.1615V86.592C97.6315 86.6798 97.6084 86.766 97.5645 86.842C97.5206 86.918 97.4575 86.9811 97.3815 87.025L58.25 109.618Z"
        fill="black" />
    <path
        d="M105.66 52.8685C105.66 52.7862 105.64 52.7051 105.601 52.6326C105.562 52.5601 105.505 52.4984 105.437 52.4529C105.368 52.4074 105.289 52.3795 105.207 52.3718C105.126 52.364 105.043 52.3766 104.967 52.4085L61.212 70.733C60.6495 70.9685 60.918 71.8145 61.5135 71.6825L105.284 61.9645C105.395 61.9399 105.495 61.8779 105.566 61.789C105.637 61.7001 105.676 61.5894 105.675 61.4755L105.66 52.8685ZM53.1035 57.116C52.6915 57.5655 53.2895 58.221 53.775 57.852L91.522 29.121C91.5874 29.0711 91.6395 29.0059 91.6737 28.9311C91.7078 28.8563 91.723 28.7742 91.7179 28.6921C91.7127 28.61 91.6874 28.5305 91.6442 28.4605C91.6009 28.3905 91.5411 28.3323 91.47 28.291L84.024 23.974C83.9254 23.9169 83.8102 23.8951 83.6975 23.9124C83.5848 23.9297 83.4815 23.9849 83.4045 24.069L53.1035 57.116ZM95.5865 31.055C95.6648 30.9953 95.7591 30.96 95.8574 30.9537C95.9557 30.9474 96.0537 30.9703 96.139 31.0195L105.381 36.3555C105.458 36.3994 105.521 36.4625 105.564 36.5385C105.608 36.6145 105.631 36.7007 105.631 36.7885V47.461C105.631 47.5595 105.602 47.6559 105.548 47.7379C105.493 47.8199 105.415 47.884 105.324 47.922L38.013 76.112C37.472 76.339 37.05 75.6085 37.517 75.253L95.5865 31.055Z"
        fill="black" />
    <path fill-rule="evenodd" clip-rule="evenodd"
        d="M38.013 76.112C37.472 76.339 37.05 75.6085 37.517 75.253L95.5865 31.0545C95.6649 30.9948 95.7591 30.9597 95.8574 30.9535C95.9558 30.9472 96.0537 30.9702 96.139 31.0195L105.381 36.3555C105.458 36.3994 105.521 36.4625 105.564 36.5385C105.608 36.6145 105.631 36.7007 105.631 36.7885V47.461C105.631 47.5595 105.602 47.6559 105.548 47.7379C105.493 47.8199 105.415 47.884 105.324 47.922L38.013 76.112Z"
        fill="black" />
    <path
        d="M153.312 96V32H177.313C182.229 32 186.354 32.9167 189.688 34.75C193.042 36.5833 195.573 39.1042 197.281 42.3125C199.01 45.5 199.875 49.125 199.875 53.1875C199.875 57.2917 199.01 60.9375 197.281 64.125C195.552 67.3125 193 69.8229 189.625 71.6562C186.25 73.4687 182.094 74.375 177.156 74.375H161.25V64.8437H175.594C178.469 64.8437 180.823 64.3437 182.656 63.3438C184.49 62.3437 185.844 60.9687 186.719 59.2188C187.615 57.4687 188.063 55.4583 188.063 53.1875C188.063 50.9167 187.615 48.9167 186.719 47.1875C185.844 45.4583 184.479 44.1146 182.625 43.1562C180.792 42.1771 178.427 41.6875 175.531 41.6875H164.906V96H153.312ZM216.358 32V96H205.045V32H216.358ZM237.403 96.9688C234.361 96.9688 231.622 96.4271 229.184 95.3437C226.768 94.2396 224.851 92.6146 223.434 90.4687C222.039 88.3229 221.341 85.6771 221.341 82.5312C221.341 79.8229 221.841 77.5833 222.841 75.8125C223.841 74.0417 225.205 72.625 226.934 71.5625C228.664 70.5 230.611 69.6979 232.778 69.1562C234.966 68.5937 237.226 68.1875 239.559 67.9375C242.372 67.6458 244.653 67.3854 246.403 67.1562C248.153 66.9062 249.424 66.5312 250.216 66.0312C251.028 65.5104 251.434 64.7083 251.434 63.625V63.4375C251.434 61.0833 250.736 59.2604 249.341 57.9687C247.945 56.6771 245.934 56.0312 243.309 56.0312C240.539 56.0312 238.341 56.6354 236.716 57.8438C235.111 59.0521 234.028 60.4792 233.466 62.125L222.903 60.625C223.736 57.7083 225.111 55.2708 227.028 53.3125C228.945 51.3333 231.289 49.8542 234.059 48.875C236.83 47.875 239.893 47.375 243.247 47.375C245.559 47.375 247.861 47.6458 250.153 48.1875C252.445 48.7292 254.539 49.625 256.434 50.875C258.33 52.1042 259.851 53.7812 260.997 55.9062C262.164 58.0312 262.747 60.6875 262.747 63.875V96H251.872V89.4063H251.497C250.809 90.7396 249.841 91.9896 248.591 93.1562C247.361 94.3021 245.809 95.2292 243.934 95.9375C242.08 96.625 239.903 96.9688 237.403 96.9688ZM240.341 88.6562C242.611 88.6562 244.58 88.2083 246.247 87.3125C247.914 86.3958 249.195 85.1875 250.091 83.6875C251.007 82.1875 251.466 80.5521 251.466 78.7812V73.125C251.111 73.4167 250.507 73.6875 249.653 73.9375C248.82 74.1875 247.882 74.4062 246.841 74.5937C245.799 74.7812 244.768 74.9479 243.747 75.0937C242.726 75.2396 241.841 75.3646 241.091 75.4687C239.403 75.6979 237.893 76.0729 236.559 76.5937C235.226 77.1146 234.174 77.8437 233.403 78.7812C232.632 79.6979 232.247 80.8854 232.247 82.3438C232.247 84.4271 233.007 86 234.528 87.0625C236.049 88.125 237.986 88.6562 240.341 88.6562ZM281.034 67.875V96H269.722V48H280.534V56.1562H281.097C282.201 53.4687 283.961 51.3333 286.378 49.75C288.816 48.1667 291.826 47.375 295.409 47.375C298.722 47.375 301.607 48.0833 304.066 49.5C306.545 50.9167 308.461 52.9687 309.816 55.6562C311.191 58.3437 311.868 61.6042 311.847 65.4375V96H300.534V67.1875C300.534 63.9792 299.701 61.4687 298.034 59.6562C296.389 57.8437 294.107 56.9375 291.191 56.9375C289.211 56.9375 287.451 57.375 285.909 58.25C284.389 59.1042 283.191 60.3437 282.316 61.9688C281.461 63.5937 281.034 65.5625 281.034 67.875ZM340.197 96.9375C335.384 96.9375 331.228 95.9375 327.728 93.9375C324.249 91.9167 321.572 89.0625 319.697 85.375C317.822 81.6667 316.884 77.3021 316.884 72.2812C316.884 67.3437 317.822 63.0104 319.697 59.2812C321.593 55.5312 324.239 52.6146 327.634 50.5312C331.03 48.4271 335.02 47.375 339.603 47.375C342.561 47.375 345.353 47.8542 347.978 48.8125C350.624 49.75 352.957 51.2083 354.978 53.1875C357.02 55.1667 358.624 57.6875 359.791 60.75C360.957 63.7917 361.541 67.4167 361.541 71.625V75.0937H322.197V67.4688H350.697C350.676 65.3021 350.207 63.375 349.291 61.6875C348.374 59.9792 347.093 58.6354 345.447 57.6562C343.822 56.6771 341.926 56.1875 339.759 56.1875C337.447 56.1875 335.416 56.75 333.666 57.875C331.916 58.9792 330.551 60.4375 329.572 62.25C328.614 64.0417 328.124 66.0104 328.103 68.1562V74.8125C328.103 77.6042 328.614 80 329.634 82C330.655 83.9792 332.082 85.5 333.916 86.5625C335.749 87.6042 337.895 88.125 340.353 88.125C341.999 88.125 343.489 87.8958 344.822 87.4375C346.155 86.9583 347.311 86.2604 348.291 85.3438C349.27 84.4271 350.009 83.2917 350.509 81.9375L361.072 83.125C360.405 85.9167 359.134 88.3542 357.259 90.4375C355.405 92.5 353.03 94.1042 350.134 95.25C347.239 96.375 343.926 96.9375 340.197 96.9375ZM390.68 48V56.75H363.086V48H390.68ZM369.898 36.5H381.211V81.5625C381.211 83.0833 381.44 84.25 381.898 85.0625C382.378 85.8542 383.003 86.3958 383.773 86.6875C384.544 86.9792 385.398 87.125 386.336 87.125C387.044 87.125 387.69 87.0729 388.273 86.9687C388.878 86.8646 389.336 86.7708 389.648 86.6875L391.555 95.5312C390.951 95.7396 390.086 95.9687 388.961 96.2187C387.857 96.4688 386.503 96.6146 384.898 96.6563C382.065 96.7396 379.513 96.3125 377.242 95.375C374.971 94.4167 373.169 92.9375 371.836 90.9375C370.523 88.9375 369.878 86.4375 369.898 83.4375V36.5ZM420.053 48V56.75H391.678V48H420.053ZM398.772 96V43.4687C398.772 40.2396 399.439 37.5521 400.772 35.4062C402.126 33.2604 403.939 31.6562 406.209 30.5937C408.48 29.5312 411.001 29 413.772 29C415.73 29 417.47 29.1562 418.991 29.4687C420.511 29.7812 421.636 30.0625 422.366 30.3125L420.116 39.0625C419.636 38.9167 419.032 38.7708 418.303 38.625C417.574 38.4583 416.761 38.375 415.866 38.375C413.761 38.375 412.272 38.8854 411.397 39.9062C410.543 40.9062 410.116 42.3437 410.116 44.2187V96H398.772ZM436.692 96.9688C433.651 96.9688 430.911 96.4271 428.473 95.3437C426.057 94.2396 424.14 92.6146 422.723 90.4687C421.328 88.3229 420.63 85.6771 420.63 82.5312C420.63 79.8229 421.13 77.5833 422.13 75.8125C423.13 74.0417 424.494 72.625 426.223 71.5625C427.953 70.5 429.901 69.6979 432.067 69.1562C434.255 68.5937 436.515 68.1875 438.848 67.9375C441.661 67.6458 443.942 67.3854 445.692 67.1562C447.442 66.9062 448.713 66.5312 449.505 66.0312C450.317 65.5104 450.723 64.7083 450.723 63.625V63.4375C450.723 61.0833 450.026 59.2604 448.63 57.9687C447.234 56.6771 445.223 56.0312 442.598 56.0312C439.828 56.0312 437.63 56.6354 436.005 57.8438C434.401 59.0521 433.317 60.4792 432.755 62.125L422.192 60.625C423.026 57.7083 424.401 55.2708 426.317 53.3125C428.234 51.3333 430.578 49.8542 433.348 48.875C436.119 47.875 439.182 47.375 442.536 47.375C444.848 47.375 447.151 47.6458 449.442 48.1875C451.734 48.7292 453.828 49.625 455.723 50.875C457.619 52.1042 459.14 53.7812 460.286 55.9062C461.453 58.0312 462.036 60.6875 462.036 63.875V96H451.161V89.4063H450.786C450.098 90.7396 449.13 91.9896 447.88 93.1562C446.651 94.3021 445.098 95.2292 443.223 95.9375C441.369 96.625 439.192 96.9688 436.692 96.9688ZM439.63 88.6562C441.901 88.6562 443.869 88.2083 445.536 87.3125C447.203 86.3958 448.484 85.1875 449.38 83.6875C450.296 82.1875 450.755 80.5521 450.755 78.7812V73.125C450.401 73.4167 449.796 73.6875 448.942 73.9375C448.109 74.1875 447.171 74.4062 446.13 74.5937C445.088 74.7812 444.057 74.9479 443.036 75.0937C442.015 75.2396 441.13 75.3646 440.38 75.4687C438.692 75.6979 437.182 76.0729 435.848 76.5937C434.515 77.1146 433.463 77.8437 432.692 78.7812C431.921 79.6979 431.536 80.8854 431.536 82.3438C431.536 84.4271 432.296 86 433.817 87.0625C435.338 88.125 437.276 88.6562 439.63 88.6562ZM480.323 32V96H469.011V32H480.323ZM498.869 32V96H487.556V32H498.869Z"
        fill="black" />
</svg>